<svg xmlns="http://www.w3.org/2000/svg" width="140" height="130"><style><![CDATA[.B{stroke-miterlimit:10}.C{fill:none}.D{stroke-width:3}.E{stroke-linecap:round}.F{stroke:#444}.G{stroke-width:2}.H{opacity:.5}.I{fill:#e8e8e8}.J{stroke:#515151}]]></style><path d="M132.423 56.463c0 3.58-2.904 6.484-6.484 6.484 3.58 0 6.484 2.9 6.484 6.48a6.48 6.48 0 0 1 6.48-6.481c-3.58 0-6.48-2.903-6.48-6.484zm-91.05 13.043a4.04 4.04 0 0 1-4.04 4.039 4.04 4.04 0 0 1 4.04 4.039 4.04 4.04 0 0 1 4.037-4.039 4.04 4.04 0 0 1-4.037-4.039zM86.33 0a6.09 6.09 0 0 1-6.086 6.086c3.36 0 6.086 2.723 6.086 6.084 0-3.36 2.723-6.084 6.084-6.084-3.362 0-6.084-2.725-6.084-6.086zM48.88 107.53a4.32 4.32 0 0 1-4.32 4.32 4.32 4.32 0 0 1 4.32 4.322 4.32 4.32 0 0 1 4.32-4.322 4.32 4.32 0 0 1-4.32-4.32z" fill="#8cc34b"/><linearGradient id="A" gradientUnits="userSpaceOnUse" x1=".248" y1="68.519" x2="14.115" y2="68.519"><stop offset="0" stop-color="#f79d2a"/><stop offset="1" stop-color="#ffcd2e"/></linearGradient><path fill="url(#A)" d="M7.183 61.585A6.94 6.94 0 0 1 .248 68.52c3.828 0 6.935 3.104 6.935 6.934 0-3.83 3.104-6.934 6.933-6.934-3.83 0-6.933-3.105-6.933-6.935z"/><linearGradient id="B" gradientUnits="userSpaceOnUse" x1="94.738" y1="78.005" x2="103.648" y2="78.005"><stop offset="0" stop-color="#f79d2a"/><stop offset="1" stop-color="#ffcd2e"/></linearGradient><path fill="url(#B)" d="M99.195 73.55a4.46 4.46 0 0 1-4.457 4.457c2.46 0 4.457 1.992 4.457 4.455 0-2.463 1.994-4.455 4.453-4.455-2.46 0-4.453-1.996-4.453-4.457z"/><linearGradient id="C" gradientUnits="userSpaceOnUse" x1="127.488" y1="111.997" x2="140" y2="111.997"><stop offset="0" stop-color="#f79d2a"/><stop offset="1" stop-color="#ffcd2e"/></linearGradient><path fill="url(#C)" d="M133.746 105.74a6.26 6.26 0 0 1-6.258 6.256 6.26 6.26 0 0 1 6.258 6.256c0-3.455 2.8-6.256 6.254-6.256-3.456 0-6.254-2.8-6.254-6.256z"/><linearGradient id="D" gradientUnits="userSpaceOnUse" x1="104.482" y1="19.317" x2="112.242" y2="19.317"><stop offset="0" stop-color="#f79d2a"/><stop offset="1" stop-color="#ffcd2e"/></linearGradient><path fill="url(#D)" d="M108.36 15.438a3.88 3.88 0 0 1-3.879 3.879 3.88 3.88 0 0 1 3.879 3.88 3.88 3.88 0 0 1 3.881-3.88 3.88 3.88 0 0 1-3.881-3.879z"/><linearGradient id="E" gradientUnits="userSpaceOnUse" x1="13.315" y1="110.583" x2="21.35" y2="110.583"><stop offset="0" stop-color="#f79d2a"/><stop offset="1" stop-color="#ffcd2e"/></linearGradient><path fill="url(#E)" d="M17.332 106.565a4.02 4.02 0 0 1-4.018 4.018 4.02 4.02 0 0 1 4.018 4.018c0-2.22 1.798-4.018 4.018-4.018a4.02 4.02 0 0 1-4.018-4.018z"/><linearGradient id="F" gradientUnits="userSpaceOnUse" x1="64.644" y1="125.679" x2="73.287" y2="125.679"><stop offset="0" stop-color="#f79d2a"/><stop offset="1" stop-color="#ffcd2e"/></linearGradient><path fill="url(#F)" d="M68.966 121.358a4.32 4.32 0 0 1-4.321 4.32A4.32 4.32 0 0 1 68.966 130a4.32 4.32 0 0 1 4.321-4.322 4.32 4.32 0 0 1-4.321-4.32z"/><linearGradient id="G" gradientUnits="userSpaceOnUse" x1="0" y1="16.127" x2="7.982" y2="16.127"><stop offset="0" stop-color="#f79d2a"/><stop offset="1" stop-color="#ffcd2e"/></linearGradient><path fill="url(#G)" d="M3.992 12.136c0 2.205-1.788 3.99-3.992 3.99 2.204 0 3.992 1.787 3.992 3.99a3.99 3.99 0 0 1 3.99-3.991 3.99 3.99 0 0 1-3.99-3.991z"/><linearGradient id="H" gradientUnits="userSpaceOnUse" x1="60.302" y1="89.1" x2="77.087" y2="89.1"><stop offset="0" stop-color="#76767d"/><stop offset="1" stop-color="#a4a8a8"/></linearGradient><path fill="url(#H)" d="M75.628 85.178H61.76c-.806 0-1.458 1.482-1.458 2.29s.652 2.287 1.458 2.287h4.647l-5.09.95c-.764.248-1.185.72-.938 1.484.2.617.772.834 1.4.834.147 0 .3-.113.45-.158l13.862-4.54c.682-.22 1.102-1.057 1-1.766s-.724-1.378-1.44-1.378z" class="B F G"/><linearGradient id="I" gradientUnits="userSpaceOnUse" x1="60.301" y1="95.53" x2="77.07" y2="95.53"><stop offset="0" stop-color="#76767d"/><stop offset="1" stop-color="#a4a8a8"/></linearGradient><path fill="url(#I)" d="M75.61 95.477h-4.635l5.086-2.3c.766-.246 1.186-1.393.936-2.16s-1.068-1.348-1.838-1.1l-13.85 4.414c-.683.225-1.102 1.203-1 1.912s.724 1.52 1.44 1.52h1.26l2.204 3.434h6.873l2.238-3.434h1.277c.807 0 1.457-.34 1.457-1.145s-.65-1.143-1.457-1.143z" class="B F G"/><linearGradient id="J" gradientUnits="userSpaceOnUse" x1="49.016" y1="60.078" x2="88.386" y2="60.078"><stop offset="0" stop-color="#f79d2a"/><stop offset="1" stop-color="#ffcd2e"/></linearGradient><path fill="url(#J)" d="M68.696 36.465c-10.862.013-19.68 8.82-19.68 19.685 0 5.222 2.656 9.73 5.348 13.77 5.945 8.932 2.567 13.77 6 13.77h16.7c3.436 0 .05-4.838 5.994-13.77 2.69-4.04 5.34-8.41 5.34-13.627.002-10.87-8.826-19.816-19.7-19.83z" class="B G J"/><path fill="#fff" d="M77.695 62.196c-.04.105-4.25 10.583-3.914 19.937.02.574-.305 1.06-.72 1.088-.016.004-.027.004-.04.004-.4 0-.738-.434-.756-1-.28-7.852 2.324-16.135 3.523-19.506h-2.754c-.36 0-.67-.352-.74-.826l-1.053 3.182c-.146.435-.492.682-.83.593s-.598-.477-.62-.956l-.086-1.834-.74 2.56c-.136.463-.487.74-.85.637-.356-.094-.614-.522-.614-1.022v-1.937l-.686 2.13c-.145.443-.497.7-.84.6-.346-.1-.6-.5-.612-.984l-.08-3.23-.314.633c-.142.283-.378.458-.63.458H61.7c2.894 7.278 3.35 18.875 3.368 19.4.02.576-.303 1.063-.72 1.092-.415.063-.776-.4-.796-.986-.006-.13-.528-13.426-3.83-19.95-.163-.32-.182-.734-.05-1.077s.388-.556.672-.556h3.598l1.392-2.822c.184-.372.522-.54.838-.416s.536.512.55.962l.05 1.886.804-2.494c.145-.447.498-.695.85-.602.353.104.602.53.602 1.02v1.435l.526-1.815c.133-.45.48-.718.825-.645s.62.476.638.964l.105 2.304.883-2.67c.14-.422.47-.66.805-.598.334.068.596.43.64.89l.262 2.603h3.338c.268 0 .516.197.652.515a1.35 1.35 0 0 1 .003 1.02z"/><path opacity=".3" stroke="#fff" d="M71.29 41.375c-9.59 0-17.365 7.848-17.365 17.528" class="B C D E"/><g opacity=".7"><linearGradient id="K" gradientUnits="userSpaceOnUse" x1="105.186" y1="55.046" x2="112.76" y2="59.449"><stop offset="0" stop-color="#76767d"/><stop offset="1" stop-color="#a4a8a8"/></linearGradient><path fill="url(#K)" d="M113.13 57.296l-6.256-3.638c-.365-.213-1.05.286-1.26.65s-.307 1.203.06 1.415l2.096 1.22-2.547-.908c-.408-.088-.723.014-.81.425-.072.33.13.578.406.74.068.04.166.027.244.046l7.447 1.588c.367.08.773-.188.9-.536s.037-.814-.288-1z" class="B F"/><linearGradient id="L" gradientUnits="userSpaceOnUse" x1="103.498" y1="57.947" x2="111.066" y2="62.346"><stop offset="0" stop-color="#76767d"/><stop offset="1" stop-color="#a4a8a8"/></linearGradient><path fill="url(#L)" d="M110.42 61.938l-2.1-1.215 2.896.297c.4.09.9-.317 1-.73s-.13-.9-.54-.98l-7.4-1.642c-.365-.078-.813.253-.947.602s-.072.878.252 1.065l.566.33.094 2.127 3.102 1.804 1.9-.962.576.334c.365.212.748.23.96-.135s.007-.686-.357-.897z" class="B F"/><linearGradient id="M" gradientUnits="userSpaceOnUse" x1="107.706" y1="38.988" x2="125.473" y2="49.317"><stop offset="0" stop-color="#f79d2a"/><stop offset="1" stop-color="#ffcd2e"/></linearGradient><path fill="url(#M)" d="M122.78 33.496c-4.904-2.844-11.193-1.183-14.043 3.72-1.37 2.356-1.354 5.09-1.2 7.618.34 5.59-2.455 6.886-.904 7.787l7.53 4.377c1.55.9 1.29-2.17 6.316-4.64 2.275-1.117 4.617-2.393 5.986-4.75 2.852-4.903 1.215-11.256-3.685-14.112z" class="B G J"/><path fill="#fff" d="M120.093 47.468c-.047.036-4.693 3.66-6.998 7.97-.14.265-.416.397-.61.302-.008-.002-.012-.005-.018-.01-.182-.105-.22-.39-.082-.646 1.934-3.616 5.28-6.67 6.707-7.877l-1.242-.723c-.162-.095-.21-.335-.117-.566l-1.31 1.158c-.18.158-.4.18-.53.05s-.145-.373-.03-.596l.443-.85-1.006.962c-.184.174-.414.205-.55.063-.137-.136-.14-.396-.01-.62l.508-.874-.867.78c-.182.16-.408.184-.535.05-.133-.132-.14-.384-.02-.604l.813-1.48-.31.203c-.137.09-.29.108-.404.042l-1.193-.694c-.604 4.043-3.44 9.396-3.57 9.638-.143.266-.414.4-.61.304-.203-.08-.242-.4-.1-.653.03-.06 3.283-6.197 3.506-10.008.012-.188.11-.378.26-.498s.322-.15.45-.075l1.623.944 1.37-.91c.18-.12.377-.107.486.032s.11.372-.004.578l-.473.864 1.018-.915c.182-.164.408-.184.543-.05.13.14.13.397.002.618l-.377.647.713-.682c.18-.168.406-.197.543-.073s.154.376.035.602l-.557 1.066 1.098-.973c.176-.152.387-.174.52-.058s.156.352.053.57l-.564 1.243 1.508.875c.12.07.18.225.158.404a.71.71 0 0 1-.266.464z"/><path opacity=".3" stroke="#fff" d="M122.666 36.393c-4.328-2.516-9.895-1.015-12.436 3.354" class="B C D E"/></g><g opacity=".7"><linearGradient id="N" gradientUnits="userSpaceOnUse" x1="33.665" y1="98.403" x2="35.406" y2="92.444"><stop offset="0" stop-color="#76767d"/><stop offset="1" stop-color="#a4a8a8"/></linearGradient><path fill="url(#N)" d="M33.862 92.555l-1.44 4.924c-.084.287.376.672.66.754s.88.008.964-.28l.483-1.65-.192 1.908c.01.297.132.494.43.484.24-.006.376-.188.44-.404.015-.055-.01-.12-.01-.176l-.174-5.395c-.007-.266-.26-.502-.524-.535s-.564.115-.64.37z" class="B F"/><linearGradient id="O" gradientUnits="userSpaceOnUse" x1="35.948" y1="99.073" x2="37.688" y2="93.118"><stop offset="0" stop-color="#76767d"/><stop offset="1" stop-color="#a4a8a8"/></linearGradient><path fill="url(#O)" d="M37.516 93.63l-.48 1.646-.29-2.043c-.008-.3-.372-.566-.668-.56s-.59.24-.58.54l.13 5.377c.007.264.312.516.574.55s.615-.1.7-.354l.13-.447 1.447-.426.715-2.44-.988-1.15.132-.453c.084-.285.03-.553-.254-.637s-.475.114-.56.4z" class="B F"/><linearGradient id="P" gradientUnits="userSpaceOnUse" x1="22.189" y1="99.399" x2="26.274" y2="85.421"><stop offset="0" stop-color="#f79d2a"/><stop offset="1" stop-color="#ffcd2e"/></linearGradient><path fill="url(#P)" d="M15.847 89.963c-1.122 3.857 1.1 7.902 4.947 9.027 1.854.543 3.73.066 5.444-.47 3.787-1.184 5.155.52 5.51-.7l1.732-5.924c.357-1.22-1.714-.52-4.266-3.56-1.156-1.375-2.433-2.77-4.285-3.31-3.858-1.127-7.95 1.08-9.083 4.937z" class="B G J"/><path fill="#fff" d="M25.917 89.438c.032.025 3.317 2.605 6.673 3.46.206.05.345.217.313.367-.046.16-.234.23-.435.18-2.815-.715-5.487-2.5-6.56-3.273l-.285.977c-.038.13-.195.203-.37.178l1.02.703c.14.098.19.246.125.357s-.232.164-.404.12l-.66-.158.833.527c.15.096.21.25.137.37s-.25.164-.426.11l-.688-.2.686.467c.142.094.194.246.126.357s-.24.162-.413.115l-1.156-.305.193.178c.086.078.124.182.097.27l-.274.94c2.884-.27 7.05.77 7.237.818.206.053.347.217.313.37-.022.152-.228.232-.434.178-.046-.01-4.82-1.203-7.48-.71-.13.023-.278-.012-.387-.094s-.156-.197-.127-.297l.372-1.277-.856-.787c-.113-.104-.14-.24-.062-.34s.238-.137.398-.096l.676.178-.803-.545c-.145-.096-.195-.248-.125-.363s.25-.16.423-.107l.51.148-.6-.373c-.146-.096-.205-.246-.143-.36s.23-.17.408-.127l.828.2-.857-.6c-.134-.094-.186-.234-.127-.348s.214-.168.382-.133l.95.176.347-1.186c.026-.094.123-.164.25-.178s.262.025.363.107z"/><path opacity=".3" stroke="#fff" d="M17.86 89.55c-.996 3.404.984 6.98 4.42 7.986" class="B C D E"/></g><linearGradient id="Q" gradientUnits="userSpaceOnUse" x1="68.702" y1="18.065" x2="68.702" y2="29.735"><stop offset="0" stop-color="#f79d2a"/><stop offset="1" stop-color="#ffcd2e"/></linearGradient><path fill="url(#Q)" d="M68.7 29.735a1.28 1.28 0 0 1-1.279-1.28v-9.11a1.28 1.28 0 0 1 1.279-1.28 1.28 1.28 0 0 1 1.28 1.28v9.11a1.28 1.28 0 0 1-1.28 1.28z" class="H"/><linearGradient id="R" gradientUnits="userSpaceOnUse" x1="88.039" y1="25.59" x2="81.364" y2="35.161"><stop offset="0" stop-color="#f79d2a"/><stop offset="1" stop-color="#ffcd2e"/></linearGradient><path fill="url(#R)" d="M81.36 35.16a1.28 1.28 0 0 1-.316-1.782l5.21-7.472c.404-.58 1.203-.723 1.78-.317s.723 1.202.316 1.78l-5.21 7.473c-.406.578-1.203.72-1.783.317z" class="H"/><linearGradient id="S" gradientUnits="userSpaceOnUse" x1="99.872" y1="37.839" x2="89.539" y2="43.259"><stop offset="0" stop-color="#f79d2a"/><stop offset="1" stop-color="#ffcd2e"/></linearGradient><path fill="url(#S)" d="M89.54 43.26a1.28 1.28 0 0 1 .537-1.729l8.068-4.23a1.28 1.28 0 0 1 1.729.539 1.28 1.28 0 0 1-.541 1.727L91.268 43.8c-.628.327-1.4.086-1.73-.54z" class="H"/><linearGradient id="T" gradientUnits="userSpaceOnUse" x1="49.077" y1="25.588" x2="55.753" y2="35.16"><stop offset="0" stop-color="#f79d2a"/><stop offset="1" stop-color="#ffcd2e"/></linearGradient><path fill="url(#T)" d="M55.755 35.16a1.28 1.28 0 0 0 .318-1.782l-5.212-7.472a1.28 1.28 0 0 0-1.783-.317 1.28 1.28 0 0 0-.316 1.781l5.21 7.473c.405.578 1.203.72 1.782.317z" class="H"/><linearGradient id="U" gradientUnits="userSpaceOnUse" x1="37.192" y1="37.839" x2="47.525" y2="43.259"><stop offset="0" stop-color="#f79d2a"/><stop offset="1" stop-color="#ffcd2e"/></linearGradient><path fill="url(#U)" d="M47.525 43.26a1.28 1.28 0 0 0-.538-1.729L38.92 37.3a1.28 1.28 0 0 0-1.729.539 1.28 1.28 0 0 0 .539 1.727l8.066 4.233c.628.327 1.4.086 1.73-.54z" class="H"/><g class="B F I"><path d="M117.433,115.153"/><path d="M84.835 118.928L96.18 91.95s20.242 5.607 28.803-5.54c.432-.56-.586 3.34-.586 3.34l-9.19 24.885s-3.582 13.047-30.22 3.936" class="G"/></g><linearGradient id="V" gradientUnits="userSpaceOnUse" x1="96.281" y1="98.868" x2="116.05" y2="106.278"><stop offset="0" stop-color="#f79d2a"/><stop offset="1" stop-color="#ffcd2e"/></linearGradient><path stroke="url(#V)" d="M115.812 102.635s-6.506 3.21-19.295-.125" class="B C D E"/><linearGradient id="W" gradientUnits="userSpaceOnUse" x1="97.24" y1="103.583" x2="116.289" y2="109.329"><stop offset="0" stop-color="#56af5e"/><stop offset="1" stop-color="#c1d24d"/></linearGradient><path stroke="url(#W)" d="M115.783 105.813s-5.055 3.775-18.037 1.29" class="B C D E"/><linearGradient id="X" gradientUnits="userSpaceOnUse" x1="96.04" y1="107.681" x2="114.864" y2="113.359"><stop offset="0" stop-color="#56af5e"/><stop offset="1" stop-color="#c1d24d"/></linearGradient><path stroke="url(#X)" d="M114.32 109.97s-3.816 3.674-17.736 1.104" class="B C D E"/><linearGradient id="Y" gradientUnits="userSpaceOnUse" x1="91.92" y1="109.599" x2="113.351" y2="118.577"><stop offset="0" stop-color="#f79d2a"/><stop offset="1" stop-color="#ffcd2e"/></linearGradient><g class="B"><path stroke="url(#Y)" d="M113.482 114.38s-6.71 3.512-21.695-.582" class="C D E"/><path d="M91.687,102.577" class="F I"/></g><path fill="#434347" d="M94.13 96.182l2.05-4.23s20.242 5.607 28.803-5.54c.432-.56-.586 3.34-.586 3.34s-1.352 14.2-29.938 6.764"/><linearGradient id="Z" gradientUnits="userSpaceOnUse" x1="105.546" y1="110.067" x2="132.279" y2="83.346"><stop offset=".124" stop-color="#9ca5aa"/><stop offset="1" stop-color="#cfd7db"/></linearGradient><path fill="url(#Z)" stroke="#565656" d="M127.488 83.116c-.082-5.096-2.975-7.527-2.975-7.527l-13.26 31.832c4.55 5.063 2.053 10.4 2.053 10.4l14.182-34.715z" class="B G"/><ellipse transform="matrix(.9054 .4245 -.4245 .9054 49.3336 -32.5117)" fill="#ec4643" cx="97.641" cy="94.476" rx=".95" ry="1.038"/><path fill="#ffcd2e" d="M101.046 95.288c-.2.535-.762.818-1.252.635s-.73-.766-.53-1.3.764-.824 1.254-.637.73.767.527 1.303z"/><ellipse transform="matrix(.9459 .3245 -.3245 .9459 36.5275 -28.1431)" fill="#c2e046" cx="102.635" cy="95.436" rx=".951" ry="1.037"/><path d="M42.474 1.138l-.858 29.055s-20.762 2.05-24.704 15.44c-.2.676-.653-3.3-.653-3.3l-.39-26.35S14.52 2.614 42.462 1.52" class="B F G I"/><linearGradient id="a" gradientUnits="userSpaceOnUse" x1="39.001" y1="27.905" x2="19.999" y2="30.849"><stop offset="0" stop-color="#f79d2a"/><stop offset="1" stop-color="#ffcd2e"/></linearGradient><path stroke="url(#a)" d="M21.866 33.104s2.572-4.11 15.268-7.45" class="B C D E"/><linearGradient id="b" gradientUnits="userSpaceOnUse" x1="19.603" y1="24.997" x2="36.221" y2="24.997"><stop offset="0" stop-color="#56af5e"/><stop offset="1" stop-color="#c1d24d"/></linearGradient><path stroke="url(#b)" d="M21.103 28.996s1.17-3.828 13.618-7.998" class="B C D E"/><linearGradient id="c" gradientUnits="userSpaceOnUse" x1="18.845" y1="20.59" x2="36.476" y2="20.59"><stop offset="0" stop-color="#56af5e"/><stop offset="1" stop-color="#c1d24d"/></linearGradient><path stroke="url(#c)" d="M20.345 24.54s6.055-6.603 14.63-7.9" class="B C D E"/><linearGradient id="d" gradientUnits="userSpaceOnUse" x1="39.245" y1="14.729" x2="17.065" y2="17.304"><stop offset="0" stop-color="#f79d2a"/><stop offset="1" stop-color="#ffcd2e"/></linearGradient><g class="B"><path stroke="url(#d)" d="M18.925 20.316s8.095-7.738 18.463-8.587" class="C D E"/><path d="M41.976 18.74" class="F I"/></g><path fill="#434347" d="M42 1.326l-.34 6.468s-20.808.234-24.75 13.626c-.2.675-.653-3.303-.653-3.303s-3.83-13.64 25.318-16.98"/><linearGradient id="e" gradientUnits="userSpaceOnUse" x1="25.69" y1="19.21" x2="11.517" y2="51.205"><stop offset=".124" stop-color="#9ca5aa"/><stop offset="1" stop-color="#cfd7db"/></linearGradient><path fill="url(#e)" stroke="#565656" d="M15.77 49.586c1.898 4.7 5.447 5.908 5.447 5.908l.896-34.24c-6.026-3.06-6.122-6.34-6.122-6.34l-.22 34.672z" class="B G"/></svg>