<svg xmlns="http://www.w3.org/2000/svg" width="30" height="30" viewBox="0 0 30 29.263"><path fill="#2b2b2b" d="M19.746 29.238c-.762.137-1.016-.332-1.016-.723v-4.12c0-1.406-.47-2.305-1.016-2.773 3.34-.37 6.855-1.64 6.855-7.402 0-1.64-.586-2.988-1.543-4.023.156-.39.664-1.914-.156-3.984-1.25-.39-4.12 1.543-4.12 1.543-1.2-.333-2.48-.51-3.75-.51a14.12 14.12 0 0 0-3.75.508S8.38 5.82 7.11 6.21c-.8 2.07-.293 3.594-.137 3.984-.956 1.035-1.542 2.383-1.542 4.024 0 5.742 3.496 7.03 6.836 7.402-.43.39-.82 1.035-.957 2.012-.86.39-3.047 1.055-4.355-1.25-.82-1.426-2.305-1.543-2.305-1.543-1.465-.02-.098.918-.098.918.977.45 1.66 2.188 1.66 2.188.88 2.676 5.06 1.777 5.06 1.777l.02 2.793c0 .39-.273.86-1.035.723C4.297 27.246 0 21.62 0 15 0 6.72 6.72 0 15 0s15 6.72 15 15c0 6.62-4.297 12.246-10.254 14.238z"/></svg>