<svg xmlns="http://www.w3.org/2000/svg" width="140" height="139" viewBox="0 0 140 138.526"><style><![CDATA[.B{stroke-miterlimit:10}.C{fill:none}.D{stroke-linecap:round}.E{stroke-width:4}.F{stroke-width:2}]]></style><path d="M83.08 0c0 3.513-2.85 6.36-6.36 6.36a6.36 6.36 0 0 1 6.361 6.358 6.36 6.36 0 0 1 6.357-6.358A6.36 6.36 0 0 1 83.081 0zM9.117 95.573a6.36 6.36 0 0 1-6.36 6.359 6.36 6.36 0 0 1 6.36 6.359 6.36 6.36 0 0 1 6.357-6.359 6.36 6.36 0 0 1-6.357-6.359zm22.315-61.995c0 2.494-2.02 4.515-4.515 4.515 2.493 0 4.515 2.02 4.515 4.517 0-2.495 2.02-4.517 4.515-4.517-2.494 0-4.515-2.02-4.515-4.515zm35.374 83.315c0 2.494-2.02 4.514-4.515 4.514 2.493 0 4.515 2.02 4.515 4.518 0-2.496 2.02-4.518 4.515-4.518-2.494 0-4.515-2.02-4.515-4.514zm68.68-12.635c0 2.494-2.02 4.514-4.514 4.514 2.492 0 4.514 2.02 4.514 4.518 0-2.496 2.02-4.518 4.516-4.518-2.495 0-4.516-2.02-4.516-4.514z" fill="#8cc34b"/><linearGradient id="A" gradientUnits="userSpaceOnUse" x1="120.993" y1="66.724" x2="135.485" y2="66.724"><stop offset="0" stop-color="#f79d2a"/><stop offset="1" stop-color="#ffcd2e"/></linearGradient><path fill="url(#A)" d="M128.24 59.478c0 4.002-3.248 7.248-7.248 7.248a7.25 7.25 0 0 1 7.248 7.246c0-4.002 3.242-7.246 7.244-7.246a7.25 7.25 0 0 1-7.244-7.248z"/><linearGradient id="B" gradientUnits="userSpaceOnUse" x1="35.946" y1="6.359" x2="44.056" y2="6.359"><stop offset="0" stop-color="#f79d2a"/><stop offset="1" stop-color="#ffcd2e"/></linearGradient><path fill="url(#B)" d="M40 2.305c0 2.24-1.815 4.054-4.054 4.054C38.184 6.36 40 8.173 40 10.415c0-2.24 1.815-4.056 4.056-4.056C41.815 6.358 40 4.545 40 2.305z"/><linearGradient id="C" gradientUnits="userSpaceOnUse" x1="0" y1="31.375" x2="14.363" y2="31.375"><stop offset="0" stop-color="#f79d2a"/><stop offset="1" stop-color="#ffcd2e"/></linearGradient><path fill="url(#C)" d="M7.18 24.192c0 3.968-3.217 7.18-7.18 7.18 3.964 0 7.18 3.215 7.18 7.184 0-3.97 3.215-7.184 7.183-7.184a7.18 7.18 0 0 1-7.183-7.181z"/><linearGradient id="D" gradientUnits="userSpaceOnUse" x1="93.932" y1="131.344" x2="108.295" y2="131.344"><stop offset="0" stop-color="#f79d2a"/><stop offset="1" stop-color="#ffcd2e"/></linearGradient><path fill="url(#D)" d="M101.114 124.163c0 3.97-3.22 7.182-7.182 7.182 3.963 0 7.182 3.215 7.182 7.182 0-3.967 3.215-7.182 7.182-7.182-3.967-.001-7.182-3.214-7.182-7.182z"/><linearGradient id="E" gradientUnits="userSpaceOnUse" x1="47.881" y1="58.098" x2="92.648" y2="58.098"><stop offset="0" stop-color="#f79d2a"/><stop offset="1" stop-color="#ffcd2e"/></linearGradient><g stroke="#515151" class="B"><g class="F"><path fill="url(#E)" d="M92.45 82.727c.445-3.342 0-5.535 0-5.535v-28.3c-.676-.204-1.375-.345-2.115-.345-2.154 0-4.076.935-5.426 2.405V32.91a5.03 5.03 0 0 0-5.029-5.03c-1.512 0-2.852.68-3.773 1.735v-2.74a5.03 5.03 0 0 0-5.029-5.03 5.03 5.03 0 0 0-5.028 5.03v3.196c-.906-1.323-2.424-2.19-4.147-2.19a5.03 5.03 0 0 0-5.03 5.03v6.663c-.922-1.142-2.315-1.888-3.896-1.888a5.03 5.03 0 0 0-5.029 5.03V77.19c-.755 15.652 5.374 17.16 5.374 17.16h34.375c2.936-4.068 4.178-7.97 4.666-11.03h.1v-.595z"/><path d="M92.588 83.323v-34.44c-.674-.204-1.375-.345-2.113-.345-4.088 0-7.396 3.312-7.396 7.396v12.994" class="C D"/></g><path d="M67.488 94.352l-.1-2.313c0-12.28 8.253-22.234 18.433-22.234" class="C D"/><path d="M56.887 38.094V60.13m9.258-30.16v30.16m10.023-31.057V60.13" class="F C D"/><path d="M80.083 35.8h-3.915m3.915 12.07h-3.915m-6.1-15.338h-3.912M60.8 37.685h-3.914M60.8 50.383h-3.914m-5.093-2.513H47.88m3.913 7.793H47.88m22.177-9.333h-3.912" class="C D"/></g><g fill="#fff"><path d="M72.793 70.15l-.865.328-2.216.994c-1.77.904-4.1 2.213-5.957 3.92-1.965 1.63-3.32 3.594-4.203 5.076-.466.736-.642 1.396-.86 1.84l-.3.703 2.452.385.268-.633c.2-.395.348-1 .77-1.65.8-1.32 1.984-3.064 3.732-4.508 1.632-1.52 3.744-2.697 5.344-3.518l2.02-.906.797-.3-.984-1.732zm7.357-2.058l.387 1.897-.617.113-1.357.293-1.943.514-.73-1.816 2.1-.555 1.47-.32.678-.127zM57.688 85.5l2.517.158-.1.475c-.066.286-.175.666-.167 1.053l-.082 1.54-2.548.104.092-1.662c-.006-.416.1-.832.18-1.145l.118-.522zm-1.004-17.278l.604.163c.4.098.96.178 1.632.304 1.37.165 3.243.298 5.1-.084 1.873-.27 3.64-1.063 4.905-1.727.644-.315 1.103-.717 1.46-.93l.54-.372-.967-1.406-.5.332c-.32.192-.733.56-1.306.837-1.13.587-2.694 1.296-4.357 1.532-1.648.347-3.336.222-4.573.078l-1.5-.277-.554-.152-.508 1.702zm-4.72-1.9l.886-1.55.362.204.82.412 1.23.526-.674 1.646-1.335-.573-.892-.446-.398-.22zm20.707-2.2l-1.127-1.274.322-.292c.195-.175.463-.398.678-.682l.9-1.077 1.3 1.1-.984 1.158c-.232.303-.523.55-.738.742l-.352.324zm.725 2.2l-6.9 3.313-6.98 3.122.625 1.488 7.036-3.148 6.936-3.326-.708-1.45zm4.8-2.405l.726 1.442-2.752 1.374-.717-1.445zM57.4 73.588l.585 1.504-1.46.547-1.503.492-.45-1.55 1.413-.465 1.416-.53z"/><g stroke="#fff" stroke-width="6" class="B"><path d="M40.578 86.956c-.467 2.488-1.308 7.492-1.92 12.637 1.383-1.38 3.712-3.316 6.05-3.64 3.673-.506 4.78 1.68 4.228 5.074-.463 2.828-2.397 9.473-.083 8.984 1.324-.268 3.202-2.992 4.026-5.656.213-.625 2.126.3 1.933.754-1.335 3.586-3.767 8.172-8.436 9.154-4.216.88-5.224-1.492-5.233-4.04 0-2.17.785-6.658.933-7.443.226-1.137.028-1.96-1.124-1.674-.78.19-1.936 1.074-2.848 2.176l-1.377 11.63c-.082.947-7.227 2.484-6.984.535 1.126-9.127 2.966-21.71 4.063-28.58 1.32-1.203 6.677-1.217 6.772.1z"/><path d="M69.32 100.22c-1.012 3.16-4.65 5.148-9.464 5.088.513 2.182 2.355 2.908 5.367 2.535 2.384-.285 5.96-1.797 7.562-6.227.21-.625 2.125.3 1.97.707-2.44 6.373-6.16 9.012-11.256 9.67-7.227.95-10.412-2.736-10.604-7.217-.256-5.875 3.88-10.44 9.94-11.19 5.438-.664 7.785 3.096 6.485 6.633zm-9.623 2.39c2.433-.25 3.67-2.078 3.86-3.467.136-.867-.124-1.514-.76-1.512-1.53-.002-2.846 2.18-3.1 4.98z"/><path d="M88.977 86.717c-.338 5.574-3.902 10.275-10.016 12.818-.373 4.1.736 6.275 3.586 5.97 1.924-.223 4.867-1.393 6.592-6.18.182-.535 2 .402 1.89.76-1.826 4.973-4.31 9.184-10.607 9.453-6.508.3-8.04-5.27-7.473-13.514.432-6.14 2.357-12.23 5.977-14.982 4.234-3.218 10.474-1.142 10.05 5.676zm-8.44 2.012c-.438 2.06-1.06 4.95-1.328 7.03 1.877-1.193 3.4-4.338 4.004-6.76.613-2.637.563-5.18-.48-5.035-.878.12-1.6 2.22-2.196 4.766z"/><path d="M105.252 84.48c-.338 5.574-3.902 10.273-10.016 12.816-.373 4.1.736 6.277 3.586 5.97 1.924-.223 4.867-1.395 6.592-6.18.182-.535 2 .402 1.89.76-1.826 4.97-4.31 9.184-10.607 9.453-6.508.3-8.04-5.273-7.473-13.516.432-6.14 2.357-12.23 5.977-14.98 4.234-3.22 10.474-1.142 10.05 5.676zm-8.44 2c-.438 2.06-1.06 4.953-1.328 7.03 1.877-1.195 3.4-4.338 4.004-6.76.613-2.637.563-5.182-.48-5.037-.878.12-1.608 2.22-2.196 4.766z"/><path d="M122.52 99.03c1.996-.02 4.143-1.72 5.184-4.967.213-.625 2.12.26 1.934.754-2.152 5.994-5.89 6.637-8.9 6.71-1.852 1.998-4.365 3.195-7.162 3.58-4.924.678-8.893-1.285-8.21-8.354.588-6.246 4.938-9.865 10.078-10.53 7.813-1 10.016 6.063 7.075 12.807zm-10.242-3.358c-.328 2.555-.69 5.795 1.73 5.46.54-.074 1.05-.398 1.408-.875-.84-1.158-.162-3.037 1.252-3.273.656-3.58.47-7.082-1.61-6.754-1.498.248-2.385 2.455-2.78 5.44z"/></g></g><path stroke="#434347" d="M127.704 94.063c-1.04 3.248-3.188 4.945-5.184 4.967 2.94-6.744.738-13.797-7.076-12.807-5.14.664-9.5 4.283-10.078 10.53-.018.186-.02.355-.03.533-1.732 4.613-4.615 5.762-6.512 5.98-2.85.307-3.96-1.88-3.586-5.97 6.113-2.543 9.678-7.242 10.016-12.816.424-6.818-5.816-8.896-10.05-5.676-3.62 2.752-5.545 8.84-5.977 14.98-.137 2-.148 3.82.002 5.455-.033.025-.074.043-.088.086-1.725 4.787-4.668 5.957-6.592 6.18-2.85.307-3.96-1.88-3.586-5.97 6.113-2.543 9.678-7.244 10.016-12.818.424-6.818-5.816-8.895-10.05-5.676-3.62 2.752-5.545 8.842-5.977 14.982-.137 1.98-.146 3.8 0 5.426-.076.033-.137.086-.164.168-1.602 4.43-5.178 5.94-7.562 6.227-3.012.373-4.854-.354-5.367-2.535 4.813.06 8.452-1.928 9.464-5.088 1.3-3.537-1.047-7.297-6.484-6.633-5.908.73-9.974 5.088-9.94 10.748-.003.008-.014.01-.017.02-.824 2.664-2.702 5.39-4.026 5.656-2.314.488-.38-6.156.083-8.984.553-3.395-.555-5.58-4.228-5.074-2.337.322-4.666 2.258-6.05 3.64.61-5.145 1.452-10.148 1.92-12.637-.095-1.307-5.45-1.293-6.773-.1-1.097 6.87-2.937 19.453-4.063 28.58-.242 1.95 6.902.412 6.984-.535l1.377-11.63c.912-1.102 2.066-1.984 2.848-2.176 1.152-.287 1.35.537 1.124 1.674-.147.785-.933 5.273-.933 7.443.01 2.55 1.018 4.92 5.233 4.04 3.513-.738 5.76-3.518 7.224-6.375 1.305 2.904 4.453 4.822 9.898 4.105 4.354-.563 7.7-2.58 10.104-7.125 1.004 3.078 3.094 4.84 6.82 4.668 5.125-.22 7.72-3.047 9.496-6.77 1.02 3 3.105 4.703 6.78 4.533 4.723-.2 7.3-2.62 9.064-5.914 1.133 3.29 4.213 4.215 7.813 3.72 2.797-.385 5.31-1.582 7.162-3.58 3-.072 6.748-.715 8.9-6.71.188-.493-1.718-1.378-1.93-.753zM96.81 86.49c.588-2.545 1.318-4.645 2.195-4.766 1.043-.145 1.094 2.4.48 5.037-.604 2.422-2.127 5.564-4.004 6.76.268-2.078.892-4.973 1.33-7.03zm-16.275 2.24c.586-2.547 1.318-4.646 2.195-4.766 1.043-.145 1.094 2.398.48 5.035-.604 2.422-2.127 5.566-4.004 6.76.268-2.078.89-4.97 1.33-7.03zM62.798 97.63c.637-.002.896.645.76 1.512-.192 1.39-1.43 3.217-3.86 3.467.253-2.8 1.57-4.98 3.1-4.98zm53.87-.646c-1.414.236-2.092 2.115-1.252 3.273-.36.477-.867.8-1.408.875-2.422.334-2.06-2.906-1.73-5.46.396-2.986 1.283-5.193 2.78-5.44 2.08-.328 2.266 3.174 1.61 6.754z" class="B C F"/><linearGradient id="F" gradientUnits="userSpaceOnUse" x1="94.711" y1="31.413" x2="107.517" y2="31.413"><stop offset="0" stop-color="#f79d2a"/><stop offset="1" stop-color="#ffcd2e"/></linearGradient><path opacity=".5" stroke="url(#F)" d="M96.71 19.586s12.188 5.536 7.887 23.653" class="B C D E"/><linearGradient id="G" gradientUnits="userSpaceOnUse" x1="106.338" y1="25.758" x2="116.658" y2="25.758"><stop offset="0" stop-color="#f79d2a"/><stop offset="1" stop-color="#ffcd2e"/></linearGradient><path opacity=".5" stroke="url(#G)" d="M108.338 17.27s8.746 3.974 5.66 16.975" class="B C D E"/><linearGradient id="H" gradientUnits="userSpaceOnUse" x1="32.139" y1="64.124" x2="19.345" y2="63.561"><stop offset="0" stop-color="#f79d2a"/><stop offset="1" stop-color="#ffcd2e"/></linearGradient><path opacity=".5" stroke="url(#H)" d="M29.62 75.852s-11.934-6.068-6.838-23.98" class="B C D E"/><linearGradient id="I" gradientUnits="userSpaceOnUse" x1="20.273" y1="69.262" x2="9.965" y2="68.808"><stop offset="0" stop-color="#f79d2a"/><stop offset="1" stop-color="#ffcd2e"/></linearGradient><path opacity=".5" stroke="url(#I)" d="M17.903 77.653S9.34 73.3 12.996 60.446" class="B C D E"/></svg>