<svg xmlns="http://www.w3.org/2000/svg" width="30" height="30"><path fill="#3f3f3f" d="M22.5 30c-1.72 0-3.3-.586-4.57-1.563-.938.195-1.934.313-2.93.313-7.598 0-13.75-6.152-13.75-13.75 0-.996.117-1.992.313-2.93C.586 10.8 0 9.22 0 7.5 0 3.36 3.36 0 7.5 0c1.72 0 3.3.586 4.57 1.563.938-.196 1.934-.313 2.93-.313 7.598 0 13.75 6.152 13.75 13.75 0 .996-.117 1.993-.313 2.93A7.47 7.47 0 0 1 30 22.5c0 4.14-3.36 7.5-7.5 7.5zm-5.664-16.934l-2.03-.47c-1.484-.352-2.598-.605-2.598-1.738 0-1.035 1.094-1.504 2.813-1.504 3.066 0 3.125 2.246 5.02 2.246 1.27 0 2.03-.996 2.03-2.13 0-2.246-3.73-3.71-7.422-3.71-3.38 0-7.305 1.465-7.305 5.43 0 3.28 2.188 4.453 5.04 5.137l2.852.703c1.738.43 2.813.625 2.813 1.875 0 .996-1.113 1.758-2.832 1.758-3.613 0-3.81-3.008-5.898-3.008-1.367 0-1.973.977-1.973 2.05 0 2.402 3.672 4.355 8.066 4.355 3.672 0 7.5-1.836 7.5-5.8-.001-3.398-3.302-4.57-6.075-5.195z"/></svg>