<svg xmlns="http://www.w3.org/2000/svg" width="38" height="22" viewBox="0 0 37.513 21.403"><path fill="#3f3f3f" d="M34.53 7.3c-3.79 5.04-4.2 4.57-1.074 7.48 3.008 2.793 3.633 4.14 3.73 4.316 0 0 1.25 2.188-1.387 2.207l-5 .078c-1.074.215-2.5-.762-2.5-.762-1.875-1.29-3.633-4.63-5-4.2 0 0-1.406.45-1.367 3.457.02.645-.293.996-.293.996s-.352.37-1.035.43h-2.246c-4.94.313-9.297-4.238-9.297-4.238S4.296 12.134.116 2.3c-.273-.645.02-.957.02-.957S.43.982 1.25.982L6.6.943a2.04 2.04 0 0 1 .859.351s.313.215.47.625C8.808 4.107 9.94 6.1 9.94 6.1c1.953 4.023 3.28 4.707 4.043 4.297 0 0 .996-.605.78-5.47-.078-1.758-.566-2.56-.566-2.56-.45-.605-1.29-.78-1.66-.84-.293-.04.195-.742.84-1.055.957-.47 2.656-.488 4.668-.47 1.582.02 2.03.117 2.637.254 1.855.45 1.23 2.168 1.23 6.31 0 1.328-.254 3.184.703 3.79.4.273 1.426.04 3.926-4.22 0 0 1.172-2.03 2.1-4.395.156-.43.488-.605.488-.605s.313-.176.742-.117l5.625-.04c1.7-.215 1.973.566 1.973.566.292.802-.626 2.677-2.93 5.743z"/></svg>